<svg xmlns="http://www.w3.org/2000/svg" viewBox="0 0 64 64" role="img" aria-label="SADBMS">
  <rect width="64" height="64" rx="14" fill="#2563eb"/>
  <!-- SA monogram -->
  <path fill="#fff" d="M14.5 22.2c0-5.1 4-8.7 10.1-8.7 4.1 0 7.1 1.5 9 3.9l-3.6 3.2c-1.2-1.5-2.9-2.3-5.1-2.3-2.6 0-4.3 1.3-4.3 3.2 0 1.9 1.3 2.9 5.3 4 5.9 1.6 9.8 3.9 9.8 9.3 0 5.4-4.3 9.1-10.9 9.1-4.8 0-8.5-1.7-10.8-4.7l3.7-3.3c1.6 1.9 3.8 3.1 6.9 3.1 3.1 0 5.1-1.4 5.1-3.5 0-2-1.5-3.1-5.7-4.3-5.9-1.7-9.5-4.2-9.5-9z"/>
  <path fill="#fff" d="M37.2 13.8h5.8L54 43.2h-5.9l-2.2-5.9H38.8l-2.2 5.9h-5.7l6.3-29.4zm2.9 18.4h7.4l-3.7-10.1-3.7 10.1z"/>
  <!-- Database cylinders -->
  <ellipse cx="32" cy="48.2" rx="13.2" ry="3.2" fill="#fff"/>
  <path fill="#fff" d="M18.8 48.2v3.6c0 1.8 5.9 3.2 13.2 3.2s13.2-1.4 13.2-3.2v-3.6c-2.4 1.4-7.3 2.2-13.2 2.2s-10.8-.8-13.2-2.2z"/>
  <path fill="#fff" d="M18.8 53.2v3.6c0 1.8 5.9 3.2 13.2 3.2s13.2-1.4 13.2-3.2v-3.6c-2.4 1.4-7.3 2.2-13.2 2.2s-10.8-.8-13.2-2.2z"/>
</svg>
